<?xml version="1.0" encoding="UTF-8"?>
<svg id="_レイヤー_1" data-name=" レイヤー 1" xmlns="http://www.w3.org/2000/svg" viewBox="0 0 43.56 50.01">
  <defs>
    <style>
      .cls-1 {
        fill: #fdfdfd;
      }
    </style>
  </defs>
  <path class="cls-1" d="M42.29,0c.64.2,1.15.51,1.27,1.22-.87,13.81-2.17,27.6-3.13,41.41-.13,1.02-.21,1.51-1.22,1.91l-17.34,5.47h-.2c-5.97-1.92-12.02-3.68-17.92-5.76-.53-.39-.52-1.02-.63-1.61C2.17,28.82.87,15.03,0,1.22.12.51.63.2,1.27,0h41.02ZM35.74,9.08H7.82l1.27,16.8h19.73l-.54,6.85-6.34,1.7-6.4-1.71v-4.3h-6.25l.7,8.78,11.51,3.68h.59l11.51-3.68,1.28-16.78H14.85l-.68-5.86h21.19l.39-5.47h0Z"/>
</svg>